<?xml version="1.0" encoding="UTF-8"?>
<svg version="1.1" xmlns="http://www.w3.org/2000/svg" width="600" height="150">
<path d="M0 0 C2.97 0 5.94 0 9 0 C9.66 1.32 10.32 2.64 11 4 C11.33 2.68 11.66 1.36 12 0 C14.97 0 17.94 0 21 0 C21.02505615 1.02883301 21.0501123 2.05766602 21.07592773 3.11767578 C21.17046052 6.95324067 21.2705672 10.78864371 21.37231445 14.62402344 C21.41549049 16.28056031 21.45717697 17.93713672 21.49731445 19.59375 C21.5554393 21.9818918 21.61900948 24.3698377 21.68359375 26.7578125 C21.70030624 27.49242706 21.71701874 28.22704163 21.73423767 28.98391724 C21.85070592 33.0730966 22.22369622 36.98311143 23 41 C24.485 40.505 24.485 40.505 26 40 C26.33 26.8 26.66 13.6 27 0 C29.97 0 32.94 0 36 0 C36.66 1.32 37.32 2.64 38 4 C38.33 2.68 38.66 1.36 39 0 C42.63 0 46.26 0 50 0 C50.99 2.31 51.98 4.62 53 7 C53.99 6.67 54.98 6.34 56 6 C55.979375 5.195625 55.95875 4.39125 55.9375 3.5625 C56 1 56 1 57 0 C59.67058851 -0.14115161 62.32432238 -0.04247107 65 0 C65.495 2.475 65.495 2.475 66 5 C69.10721061 5.34233773 69.10721061 5.34233773 71.0625 3.0625 C72.0215625 2.0415625 72.0215625 2.0415625 73 1 C76.70874808 -0.85437404 80.95320308 -0.46438653 85 0 C87.66232739 1.07526097 89.62242962 2.34603799 92 4 C92.33 2.68 92.66 1.36 93 0 C104.55 0 116.1 0 128 0 C128.33 1.65 128.66 3.3 129 5 C132.33864404 4.42437172 133.69102632 3.40936384 136 1 C140.35214383 -0.45071461 144.45648872 -0.64806673 149 0 C151.64450139 1.39238973 152.95155217 2.73592608 155 5 C155 5.66 155 6.32 155 7 C155.99 7 156.98 7 158 7 C158 7.99 158 8.98 158 10 C157.34 10 156.68 10 156 10 C156.33 10.99 156.66 11.98 157 13 C157.66 13 158.32 13 159 13 C159 8.71 159 4.42 159 0 C162.63 0 166.26 0 170 0 C170.99 2.475 170.99 2.475 172 5 C172.99 4.67 173.98 4.34 175 4 C175.73323796 1.98491642 175.73323796 1.98491642 176 0 C178.64 0 181.28 0 184 0 C184 16.5 184 33 184 50 C181.03 50 178.06 50 175 50 C174.72736328 49.04287109 174.72736328 49.04287109 174.44921875 48.06640625 C174.19785156 47.24011719 173.94648437 46.41382813 173.6875 45.5625 C173.44386719 44.73878906 173.20023438 43.91507813 172.94921875 43.06640625 C172.63597656 42.38449219 172.32273437 41.70257813 172 41 C171.01 40.67 170.02 40.34 169 40 C168.67 43.3 168.34 46.6 168 50 C165.03 50 162.06 50 159 50 C158.67 47.03 158.34 44.06 158 41 C157.608125 41.556875 157.21625 42.11375 156.8125 42.6875 C156.214375 43.450625 155.61625 44.21375 155 45 C154.0409375 46.36125 154.0409375 46.36125 153.0625 47.75 C148.93341411 50.78361412 145.84833149 50.63761692 140.828125 50.43359375 C137.23143454 49.88216745 135.31522891 48.81134939 133 46 C133 45.34 133 44.68 133 44 C132.01 44 131.02 44 130 44 C129.01 46.97 129.01 46.97 128 50 C125.03 50 122.06 50 119 50 C119 37.13 119 24.26 119 11 C116.36 10.67 113.72 10.34 111 10 C110.67 23.2 110.34 36.4 110 50 C107.03 50 104.06 50 101 50 C100 49 100 49 99.88647461 45.21459961 C99.88663378 43.52717271 99.89233083 41.83974095 99.90234375 40.15234375 C99.9037587 39.2659169 99.90517365 38.37949005 99.90663147 37.46620178 C99.91224785 34.62326746 99.92480309 31.78041069 99.9375 28.9375 C99.94251289 27.01497509 99.94707616 25.09244896 99.95117188 23.16992188 C99.96222259 18.44658451 99.97949817 13.72330542 100 9 C97.69 9.66 95.38 10.32 93 11 C92.67 13.31 92.34 15.62 92 18 C89.03 18 86.06 18 83 18 C82.505 14.04 82.505 14.04 82 10 C80.68 9.67 79.36 9.34 78 9 C77.97530679 13.2358357 77.95714329 17.47163342 77.94506836 21.70751953 C77.94003526 23.1489332 77.93320827 24.59034176 77.92456055 26.03173828 C77.91245017 28.10190085 77.90676153 30.17199601 77.90234375 32.2421875 C77.89448853 34.11173096 77.89448853 34.11173096 77.88647461 36.01904297 C77.79183413 38.92771106 77.79183413 38.92771106 79 41 C79.99 40.67 80.98 40.34 82 40 C82.495 35.05 82.495 35.05 83 30 C85.97 30 88.94 30 92 30 C92.68874748 42.89488342 92.68874748 42.89488342 90.125 46.75 C86.8855524 50.18000334 84.8069564 50.22690399 80.1875 50.375 C75.94686716 50.33432247 74.41457394 50.27638263 70.8125 47.875 C68.87296193 44.79849133 68.25160318 42.60631229 68 39 C67.34 39 66.68 39 66 39 C65.67 42.63 65.34 46.26 65 50 C61.7 50 58.4 50 55 50 C54.81824219 49.14535156 54.63648438 48.29070312 54.44921875 47.41015625 C54.19785156 46.30542969 53.94648438 45.20070312 53.6875 44.0625 C53.44386719 42.96035156 53.20023437 41.85820313 52.94921875 40.72265625 C52.63597656 39.82417969 52.32273437 38.92570312 52 38 C51.01 37.67 50.02 37.34 49 37 C48.957279 35.33388095 48.95936168 33.66617115 49 32 C49.495 31.505 49.495 31.505 50 31 C49.505 29.02 49.505 29.02 49 27 C48.67 34.59 48.34 42.18 48 50 C45.03 50 42.06 50 39 50 C38.505 44.06 38.505 44.06 38 38 C37.67 38 37.34 38 37 38 C36.82984375 38.61488281 36.6596875 39.22976562 36.484375 39.86328125 C36.24203125 40.67152344 35.9996875 41.47976562 35.75 42.3125 C35.51796875 43.11300781 35.2859375 43.91351563 35.046875 44.73828125 C33.75430798 47.53080478 32.69549143 48.52423008 30 50 C24.46204622 50.91410516 19.58170373 51.02345536 14.8125 47.9375 C12.71885695 44.54435437 12.23260625 41.95430617 12 38 C11.34 38 10.68 38 10 38 C9.81824219 38.54269531 9.63648438 39.08539063 9.44921875 39.64453125 C9.19785156 40.35996094 8.94648438 41.07539062 8.6875 41.8125 C8.44386719 42.52019531 8.20023437 43.22789063 7.94921875 43.95703125 C6.9091758 46.19547761 5.90047152 47.43739008 4 49 C1.24921116 49.91692961 -0.35948913 50.10886083 -3.1875 50.0625 C-4.445625 50.041875 -5.70375 50.02125 -7 50 C-7 47.03 -7 44.06 -7 41 C-5.02 40.34 -3.04 39.68 -1 39 C-0.67 26.13 -0.34 13.26 0 0 Z M9 8 C10 12 10 12 10 12 Z M142 9 C140.67112965 10.10267706 140.67112965 10.10267706 140.88647461 12.86743164 C140.89171143 14.11903076 140.89694824 15.37062988 140.90234375 16.66015625 C140.9037587 17.32462265 140.90517365 17.98908905 140.90663147 18.6736908 C140.91224482 20.80333899 140.92479946 22.93288339 140.9375 25.0625 C140.94251329 26.50325369 140.94707649 27.94400903 140.95117188 29.38476562 C140.96221855 32.92321102 140.97949208 36.46159539 141 40 C142.98 40.99 142.98 40.99 145 42 C145.33 41.34 145.66 40.68 146 40 C146.33 39.67 146.66 39.34 147 39 C147.08767112 36.92737924 147.10695873 34.85179706 147.09765625 32.77734375 C147.09443359 31.51728516 147.09121094 30.25722656 147.08789062 28.95898438 C147.07953403 27.61848891 147.07106907 26.27799412 147.0625 24.9375 C147.0574866 23.59310058 147.05292342 22.2486994 147.04882812 20.90429688 C147.03699488 17.60282059 147.02050971 14.30143197 147 11 C145.68 11 144.36 11 143 11 C142.67 10.34 142.34 9.68 142 9 Z M175 19 C176 21 176 21 176 21 Z M158 22 C159 24 159 24 159 24 Z M170 32 C171 34 171 34 171 34 Z M131 39 C132 41 132 41 132 41 Z " fill="#F7F8F8" transform="translate(376,43)"/>
<path d="M0 0 C2.52047733 1.41344415 3.98182867 2.87560912 6 5 C6.33 3.35 6.66 1.7 7 0 C11.10403363 -0.08694042 15.20783129 -0.14037149 19.3125 -0.1875 C20.47974609 -0.21263672 21.64699219 -0.23777344 22.84960938 -0.26367188 C23.96787109 -0.27333984 25.08613281 -0.28300781 26.23828125 -0.29296875 C27.26993408 -0.3086792 28.30158691 -0.32438965 29.36450195 -0.34057617 C32 0 32 0 33.86010742 1.51831055 C34.23627197 2.00726807 34.61243652 2.49622559 35 3 C35.61875 2.505 36.2375 2.01 36.875 1.5 C41.27934124 -0.61408379 45.1920013 -0.58711535 50 0 C53.78507366 1.6456842 56.15480455 4.05669436 59 7 C59.99 7.495 59.99 7.495 61 8 C61 5.36 61 2.72 61 0 C63.20805524 -0.0544452 65.41650554 -0.09299283 67.625 -0.125 C68.85476563 -0.14820313 70.08453125 -0.17140625 71.3515625 -0.1953125 C74.97045155 -0.00158182 77.63891692 0.69986757 81 2 C81.99 2.33 82.98 2.66 84 3 C84.33 2.01 84.66 1.02 85 0 C87.97 0 90.94 0 94 0 C97 7.5 97 7.5 97 12 C98.32 11.67 99.64 11.34 101 11 C101.99 7.37 102.98 3.74 104 0 C106.97 0 109.94 0 113 0 C112.52189961 5.65088106 111.2781551 10.55207892 109.47290039 15.91967773 C105.60496934 27.42058488 103.90108563 37.89005513 104 50 C100.7 50 97.4 50 94 50 C93.97421875 48.77925781 93.9484375 47.55851562 93.921875 46.30078125 C93.59137676 35.6193824 92.87297165 25.7459433 88 16 C88.33 15.34 88.66 14.68 89 14 C88.01 14 87.02 14 86 14 C85.87882812 14.61488281 85.75765625 15.22976562 85.6328125 15.86328125 C85.46523438 16.67152344 85.29765625 17.47976562 85.125 18.3125 C84.96257812 19.11300781 84.80015625 19.91351563 84.6328125 20.73828125 C84 23 84 23 82 26 C82.48082031 26.62261719 82.96164062 27.24523437 83.45703125 27.88671875 C85.58835251 32.18713151 85.56378624 36.07249558 85.6875 40.8125 C85.72166016 41.69615234 85.75582031 42.57980469 85.79101562 43.49023438 C85.87310433 45.65972167 85.93823879 47.8298389 86 50 C82.7 50 79.4 50 76 50 C75.93941406 48.95199219 75.87882812 47.90398437 75.81640625 46.82421875 C75.73198262 45.44529952 75.64733553 44.06639395 75.5625 42.6875 C75.52318359 41.99720703 75.48386719 41.30691406 75.44335938 40.59570312 C75.25072585 37.52838465 74.97677283 34.93031848 74 32 C72.68 31.34 71.36 30.68 70 30 C70 36.6 70 43.2 70 50 C67.03 50 64.06 50 61 50 C60.67 40.76 60.34 31.52 60 22 C59.67 22 59.34 22 59 22 C58.96261719 23.21816406 58.92523438 24.43632813 58.88671875 25.69140625 C58.82101883 27.3151329 58.75457291 28.93882949 58.6875 30.5625 C58.66494141 31.36236328 58.64238281 32.16222656 58.61914062 32.98632812 C58.34434275 39.10682631 57.58295799 44.2892828 53.18359375 48.90625 C48.7437573 51.13013946 43.81060132 50.71633271 39 50 C35.51757609 47.47353559 34.34773178 46.04319535 33 42 C32.9154613 39.5589224 32.88394214 37.14740787 32.90234375 34.70703125 C32.9037587 34.00100266 32.90517365 33.29497406 32.90663147 32.56755066 C32.91222236 30.31582374 32.92477312 28.06419679 32.9375 25.8125 C32.94251618 24.28450665 32.94707888 22.75651173 32.95117188 21.22851562 C32.9621888 17.48563865 32.97944713 13.74283627 33 10 C28.85906302 9.79029441 28.85906302 9.79029441 25 11 C24.67 23.87 24.34 36.74 24 50 C21.03 50 18.06 50 15 50 C15 36.47 15 22.94 15 9 C13.02 9 11.04 9 9 9 C9 9.66 9 10.32 9 11 C8.34 11 7.68 11 7 11 C7 12.32 7 13.64 7 15 C3.7 15 0.4 15 -3 15 C-2.67 14.01 -2.34 13.02 -2 12 C-4.97 11.505 -4.97 11.505 -8 11 C-5.69087138 16.31486588 -3.68528447 19.45746784 1 23 C5.49147762 28.43506535 7.30325602 32.68847041 7.22265625 39.78125 C6.91798443 42.817278 5.88351581 44.62816528 4 47 C3.59136719 47.52980469 3.18273437 48.05960938 2.76171875 48.60546875 C-0.44398107 51.14301828 -4.18240462 50.45424959 -8.10546875 50.359375 C-11.80256198 49.90035668 -13.62488921 48.86651303 -16 46 C-17.37020997 41.88937009 -17.06276637 38.33087938 -17 34 C-14.03 34 -11.06 34 -8 34 C-8 36.31 -8 38.62 -8 41 C-6.68 41 -5.36 41 -4 41 C-3.58168596 37.71000718 -3.58168596 37.71000718 -4 34 C-6.08113411 31.41636938 -6.08113411 31.41636938 -9 29 C-10.27049455 27.64391424 -11.51969714 26.2676521 -12.75 24.875 C-13.34296875 24.21242188 -13.9359375 23.54984375 -14.546875 22.8671875 C-17.61910499 18.91953713 -17.38479173 14.53568925 -17.359375 9.73828125 C-16.79931339 5.47085526 -15.14910247 3.84918795 -12 1 C-8.27977771 -0.86011115 -4.04969762 -0.58206663 0 0 Z M32 3 C32.33 4.65 32.66 6.3 33 8 C33.33 7.34 33.66 6.68 34 6 C33.34 5.01 32.68 4.02 32 3 Z M70 9 C69.94604522 10.62463842 69.90722805 12.24978541 69.875 13.875 C69.85179687 14.77992187 69.82859375 15.68484375 69.8046875 16.6171875 C69.75675164 19.18806994 69.75675164 19.18806994 72 21 C72.99 21 73.98 21 75 21 C75 17.37 75 13.74 75 10 C74.34 9.67 73.68 9.34 73 9 C73 9.66 73 10.32 73 11 C72.34 11 71.68 11 71 11 C70.67 10.34 70.34 9.68 70 9 Z M43 12 C41.89351802 18.08565088 41.87268444 24.20486614 41.8125 30.375 C41.79944824 31.17220459 41.78639648 31.96940918 41.77294922 32.79077148 C41.76710789 36.71322092 41.77578834 38.66368251 44 42 C45.32 41.67 46.64 41.34 48 41 C48 31.1 48 21.2 48 11 C45.0745356 10.7763932 45.0745356 10.7763932 43 12 Z " fill="#F6F7F7" transform="translate(246,43)"/>
<path d="M0 0 C15.32817432 10.4080196 32.96052724 32.52908861 37.8046875 50.71875 C38.32375012 53.85062223 38.45437067 55.99876532 37.08056641 58.89599609 C35.94011692 61.49918751 35.94011692 61.49918751 36.99755859 64.13525391 C37.46887207 65.0535498 37.94018555 65.9718457 38.42578125 66.91796875 C39.17988281 68.43003906 39.17988281 68.43003906 39.94921875 69.97265625 C40.490625 71.01421875 41.03203125 72.05578125 41.58984375 73.12890625 C42.6441958 75.20195594 43.69390595 77.27737504 44.73828125 79.35546875 C45.21185059 80.27150879 45.68541992 81.18754883 46.17333984 82.13134766 C47.21484375 84.50390625 47.21484375 84.50390625 47.21484375 87.50390625 C40.57926506 87.9320081 34.98231656 87.08908698 28.58984375 85.50390625 C20.0131269 83.39861346 12.00482251 83.07279013 3.21484375 83.50390625 C3.27671875 84.26703125 3.33859375 85.03015625 3.40234375 85.81640625 C3.21484375 88.50390625 3.21484375 88.50390625 2.1015625 90.3046875 C-0.62796632 92.0396054 -2.77333576 91.79461014 -5.97265625 91.69140625 C-7.05933594 91.66433594 -8.14601562 91.63726562 -9.265625 91.609375 C-10.51279297 91.55716797 -10.51279297 91.55716797 -11.78515625 91.50390625 C-12.11515625 90.18390625 -12.44515625 88.86390625 -12.78515625 87.50390625 C-9.27643745 84.4079779 -6.29318226 82.76196002 -1.78515625 81.50390625 C-1.78515625 80.51390625 -1.78515625 79.52390625 -1.78515625 78.50390625 C-4.09515625 77.51390625 -6.40515625 76.52390625 -8.78515625 75.50390625 C-8.78515625 74.84390625 -8.78515625 74.18390625 -8.78515625 73.50390625 C-9.77515625 73.99890625 -9.77515625 73.99890625 -10.78515625 74.50390625 C-13.11848958 74.50390625 -15.45182292 74.50390625 -17.78515625 74.50390625 C-20.46629427 74.76593719 -23.11632283 75.12933314 -25.78515625 75.50390625 C-25.78515625 74.51390625 -25.78515625 73.52390625 -25.78515625 72.50390625 C-25.14707031 72.39433594 -24.50898437 72.28476563 -23.8515625 72.171875 C-23.02527344 72.01332031 -22.19898437 71.85476562 -21.34765625 71.69140625 C-20.52394531 71.54058594 -19.70023438 71.38976562 -18.8515625 71.234375 C-17.82869141 70.87279297 -17.82869141 70.87279297 -16.78515625 70.50390625 C-16.29015625 69.01890625 -16.29015625 69.01890625 -15.78515625 67.50390625 C-14.46515625 67.50390625 -13.14515625 67.50390625 -11.78515625 67.50390625 C-15.88522796 64.77052511 -17.98836568 65.65797063 -22.66015625 66.58984375 C-27.15010219 67.90315294 -31.08012331 69.99298246 -35.15625 72.26171875 C-37.78515625 73.50390625 -37.78515625 73.50390625 -41.78515625 73.50390625 C-41.78515625 72.51390625 -41.78515625 71.52390625 -41.78515625 70.50390625 C-39.03721807 69.18693588 -36.2869844 67.87520256 -33.53515625 66.56640625 C-32.75785156 66.19322266 -31.98054688 65.82003906 -31.1796875 65.43554688 C-30.04853516 64.89897461 -30.04853516 64.89897461 -28.89453125 64.3515625 C-28.20327148 64.02164307 -27.51201172 63.69172363 -26.79980469 63.35180664 C-22.43142775 61.51329802 -18.52847807 61.17104156 -13.78515625 61.50390625 C-10.91015625 62.75390625 -10.91015625 62.75390625 -8.78515625 64.50390625 C-8.45515625 65.82390625 -8.12515625 67.14390625 -7.78515625 68.50390625 C-2.34015625 67.51390625 -2.34015625 67.51390625 3.21484375 66.50390625 C2.88484375 68.15390625 2.55484375 69.80390625 2.21484375 71.50390625 C2.70984375 75.46390625 2.70984375 75.46390625 3.21484375 79.50390625 C9.48484375 78.84390625 15.75484375 78.18390625 22.21484375 77.50390625 C22.54484375 78.49390625 22.87484375 79.48390625 23.21484375 80.50390625 C28.49484375 81.49390625 33.77484375 82.48390625 39.21484375 83.50390625 C38.13203125 81.58964844 38.13203125 81.58964844 37.02734375 79.63671875 C36.08962133 77.96757285 35.15213344 76.29829518 34.21484375 74.62890625 C33.73789063 73.78714844 33.2609375 72.94539063 32.76953125 72.078125 C32.31835938 71.27246094 31.8671875 70.46679688 31.40234375 69.63671875 C30.98339844 68.89309082 30.56445312 68.14946289 30.1328125 67.38330078 C29.21484375 65.50390625 29.21484375 65.50390625 29.21484375 63.50390625 C28.10109375 63.38015625 26.98734375 63.25640625 25.83984375 63.12890625 C20.40948604 61.79279012 17.56707986 58.11832773 13.84375 54.15625 C10.53750632 50.82053015 6.94844361 48.21695035 3.109375 45.53125 C-0.13841607 43.25648135 -3.30780056 40.89188245 -6.47265625 38.50390625 C-7.48714844 37.74078125 -8.50164063 36.97765625 -9.546875 36.19140625 C-10.28550781 35.63453125 -11.02414063 35.07765625 -11.78515625 34.50390625 C-11.59765625 32.62890625 -11.59765625 32.62890625 -10.78515625 30.50390625 C-8.22265625 29.25390625 -8.22265625 29.25390625 -5.78515625 28.50390625 C-6.76613281 28.50132813 -7.74710938 28.49875 -8.7578125 28.49609375 C-20.52260321 28.24056091 -32.12271148 25.73271288 -41.78515625 18.50390625 C-42.45429028 15.70424946 -42.02384466 13.41590484 -41.78515625 10.50390625 C-30.79255179 6.76174303 -20.08197473 8.42796403 -9.44921875 12.91015625 C-1.347638 16.98981211 4.83714506 22.15176948 11.21484375 28.50390625 C4.34509982 18.37440148 -4.91317021 9.56570643 -16.86328125 5.859375 C-25.1344933 4.329537 -32.80469946 6.43170109 -40.78515625 8.50390625 C-40.78515625 4.50390625 -40.78515625 4.50390625 -39.46484375 3.08984375 C-38.57152344 2.49042969 -38.57152344 2.49042969 -37.66015625 1.87890625 C-36.79003906 1.27175781 -36.79003906 1.27175781 -35.90234375 0.65234375 C-26.33046075 -4.53978467 -9.79479267 -4.94043145 0 0 Z M-6.78515625 87.50390625 C-6.78515625 88.16390625 -6.78515625 88.82390625 -6.78515625 89.50390625 C-4.76470183 88.90206876 -2.76404586 88.23084529 -0.78515625 87.50390625 C-0.45515625 86.84390625 -0.12515625 86.18390625 0.21484375 85.50390625 C-2.89067291 85.50390625 -4.13776709 86.04327775 -6.78515625 87.50390625 Z " fill="#C6B5ED" transform="translate(64.78515625,35.49609375)"/>
<path d="M0 0 C2.97 0 5.94 0 9 0 C9.33 6.6 9.66 13.2 10 20 C11.98 20.33 13.96 20.66 16 21 C16 14.07 16 7.14 16 0 C18.97 0 21.94 0 25 0 C25.99 0.99 26.98 1.98 28 3 C28.33 2.01 28.66 1.02 29 0 C36.26 0 43.52 0 51 0 C52.36623674 2.73247348 52.128426 4.98198902 52 8 C51 9 51 9 48.27734375 9.09765625 C46.62412109 9.08025391 46.62412109 9.08025391 44.9375 9.0625 C43.28041016 9.04896484 43.28041016 9.04896484 41.58984375 9.03515625 C40.73519531 9.02355469 39.88054687 9.01195312 39 9 C39 12.63 39 16.26 39 20 C42.3 20 45.6 20 49 20 C49 22.97 49 25.94 49 29 C45.7 29 42.4 29 39 29 C39 32.96 39 36.92 39 41 C42.96 41 46.92 41 51 41 C52 44 52 44 51 50 C43.74 50 36.48 50 29 50 C29 40.76 29 31.52 29 22 C28.01 22 27.02 22 26 22 C26 31.24 26 40.48 26 50 C22.7 50 19.4 50 16 50 C16 43.07 16 36.14 16 29 C13.69 29 11.38 29 9 29 C9 35.93 9 42.86 9 50 C6.03 50 3.06 50 0 50 C0 33.5 0 17 0 0 Z " fill="#F9F9F9" transform="translate(165,43)"/>
<path d="M0 0 C8.25 0 16.5 0 25 0 C25 2.97 25 5.94 25 9 C22.36 9 19.72 9 17 9 C17 22.53 17 36.06 17 50 C13.7 50 10.4 50 7 50 C7 36.47 7 22.94 7 9 C4.69 9 2.38 9 0 9 C0 6.03 0 3.06 0 0 Z " fill="#FAFAFA" transform="translate(139,43)"/>
<path d="M0 0 C2.125 1.75 2.125 1.75 3.125 5.75 C8.57 4.76 8.57 4.76 14.125 3.75 C13.795 5.4 13.465 7.05 13.125 8.75 C13.62 12.71 13.62 12.71 14.125 16.75 C20.395 16.09 26.665 15.43 33.125 14.75 C33.62 16.235 33.62 16.235 34.125 17.75 C35.30578125 17.95496094 36.4865625 18.15992187 37.703125 18.37109375 C39.26042997 18.64315305 40.8177209 18.91529268 42.375 19.1875 C43.15230469 19.32220703 43.92960937 19.45691406 44.73046875 19.59570312 C45.86162109 19.79389648 45.86162109 19.79389648 47.015625 19.99609375 C47.70688477 20.11654053 48.39814453 20.2369873 49.11035156 20.36108398 C51.13766117 20.75244416 53.12694515 21.23089751 55.125 21.75 C54.67447266 20.95335937 54.67447266 20.95335937 54.21484375 20.140625 C53.83457031 19.43421875 53.45429687 18.7278125 53.0625 18 C52.67964844 17.30390625 52.29679687 16.6078125 51.90234375 15.890625 C50.9937594 13.38859372 51.24163163 12.2167645 52.125 9.75 C53.13232399 11.68370231 54.13063288 13.62210306 55.125 15.5625 C55.681875 16.64144531 56.23875 17.72039062 56.8125 18.83203125 C58.125 21.75 58.125 21.75 58.125 24.75 C51.48942131 25.17810185 45.89247281 24.33518073 39.5 22.75 C30.92328315 20.64470721 22.91497876 20.31888388 14.125 20.75 C14.186875 21.513125 14.24875 22.27625 14.3125 23.0625 C14.125 25.75 14.125 25.75 13.01171875 27.55078125 C10.28218993 29.28569915 8.13682049 29.04070389 4.9375 28.9375 C3.85082031 28.91042969 2.76414063 28.88335937 1.64453125 28.85546875 C0.39736328 28.80326172 0.39736328 28.80326172 -0.875 28.75 C-1.205 27.43 -1.535 26.11 -1.875 24.75 C1.6337188 21.65407165 4.61697399 20.00805377 9.125 18.75 C9.125 17.76 9.125 16.77 9.125 15.75 C6.815 14.76 4.505 13.77 2.125 12.75 C2.125 12.09 2.125 11.43 2.125 10.75 C1.465 11.08 0.805 11.41 0.125 11.75 C-2.20833333 11.75 -4.54166667 11.75 -6.875 11.75 C-9.55613802 12.01203094 -12.20616658 12.37542689 -14.875 12.75 C-14.875 11.76 -14.875 10.77 -14.875 9.75 C-14.23691406 9.64042969 -13.59882812 9.53085938 -12.94140625 9.41796875 C-12.11511719 9.25941406 -11.28882812 9.10085937 -10.4375 8.9375 C-9.61378906 8.78667969 -8.79007813 8.63585937 -7.94140625 8.48046875 C-7.25949219 8.23941406 -6.57757813 7.99835938 -5.875 7.75 C-5.545 6.76 -5.215 5.77 -4.875 4.75 C-3.555 4.75 -2.235 4.75 -0.875 4.75 C-4.97507171 2.01661886 -7.07820943 2.90406438 -11.75 3.8359375 C-16.23994594 5.14924669 -20.16996706 7.23907621 -24.24609375 9.5078125 C-26.875 10.75 -26.875 10.75 -30.875 10.75 C-30.875 9.76 -30.875 8.77 -30.875 7.75 C-28.12706182 6.43302963 -25.37682815 5.12129631 -22.625 3.8125 C-21.84769531 3.43931641 -21.07039063 3.06613281 -20.26953125 2.68164062 C-19.51542969 2.32392578 -18.76132812 1.96621094 -17.984375 1.59765625 C-17.29311523 1.26773682 -16.60185547 0.93781738 -15.88964844 0.59790039 C-10.64257819 -1.61042183 -5.33503573 -2.31958075 0 0 Z M4.125 24.75 C4.125 25.41 4.125 26.07 4.125 26.75 C6.14545442 26.14816251 8.14611039 25.47693904 10.125 24.75 C10.455 24.09 10.785 23.43 11.125 22.75 C8.01948334 22.75 6.77238916 23.2893715 4.125 24.75 Z " fill="#DAD8E4" transform="translate(53.875,98.25)"/>
<path d="M0 0 C3.79160297 -0.05786668 7.58309311 -0.09355054 11.375 -0.125 C12.45523437 -0.14175781 13.53546875 -0.15851562 14.6484375 -0.17578125 C15.6796875 -0.18222656 16.7109375 -0.18867187 17.7734375 -0.1953125 C19.20308838 -0.21102295 19.20308838 -0.21102295 20.66162109 -0.22705078 C23 0 23 0 25 2 C24.375 4.875 24.375 4.875 23 8 C19.875 9.375 19.875 9.375 17 10 C16.02539021 18.19628894 15.69651591 26.37895242 15.4375 34.625 C15.39431641 35.91535156 15.35113281 37.20570312 15.30664062 38.53515625 C15.20147852 41.69001933 15.09933396 44.84494895 15 48 C12.69 48 10.38 48 8 48 C8 34.47 8 20.94 8 7 C5.36 7 2.72 7 0 7 C0 4.69 0 2.38 0 0 Z " fill="#FCFCFC" transform="translate(254,44)"/>
<path d="M0 0 C2.125 1.75 2.125 1.75 3.125 5.75 C8.57 4.76 8.57 4.76 14.125 3.75 C13.795 7.05 13.465 10.35 13.125 13.75 C12.465 13.75 11.805 13.75 11.125 13.75 C11.125 12.1 11.125 10.45 11.125 8.75 C8.815 9.08 6.505 9.41 4.125 9.75 C4.125 9.09 4.125 8.43 4.125 7.75 C0.65174819 6.5922494 -2.23567448 6.68133348 -5.875 6.75 C-5.545 6.09 -5.215 5.43 -4.875 4.75 C-3.555 4.75 -2.235 4.75 -0.875 4.75 C-4.97507171 2.01661886 -7.07820943 2.90406438 -11.75 3.8359375 C-16.23994594 5.14924669 -20.16996706 7.23907621 -24.24609375 9.5078125 C-26.875 10.75 -26.875 10.75 -30.875 10.75 C-30.875 9.76 -30.875 8.77 -30.875 7.75 C-28.12706182 6.43302963 -25.37682815 5.12129631 -22.625 3.8125 C-21.84769531 3.43931641 -21.07039063 3.06613281 -20.26953125 2.68164062 C-19.51542969 2.32392578 -18.76132812 1.96621094 -17.984375 1.59765625 C-17.29311523 1.26773682 -16.60185547 0.93781738 -15.88964844 0.59790039 C-10.64257819 -1.61042183 -5.33503573 -2.31958075 0 0 Z " fill="#E3E2EA" transform="translate(53.875,98.25)"/>
<path d="M0 0 C0.625 1.6875 0.625 1.6875 1 4 C0.608125 4.721875 0.21625 5.44375 -0.1875 6.1875 C-1.32955476 10.14076646 0.14204447 12.08434823 1.9140625 15.6640625 C3.48033162 19.03323132 4.16930632 22.38054897 5 26 C5.645124 28.00705243 6.30356015 30.01017187 7 32 C2.43377221 31.50634084 2.43377221 31.50634084 0.5144043 29.26586914 C0.12164307 28.52973389 -0.27111816 27.79359863 -0.67578125 27.03515625 C-1.32836914 25.83536133 -1.32836914 25.83536133 -1.99414062 24.61132812 C-2.42919922 23.77021484 -2.86425781 22.92910156 -3.3125 22.0625 C-3.76689453 21.22525391 -4.22128906 20.38800781 -4.68945312 19.52539062 C-8 13.33740602 -8 13.33740602 -8 11 C-9.27875 10.731875 -10.5575 10.46375 -11.875 10.1875 C-15.49675855 9.42809901 -15.80051868 9.29922197 -18 6 C-16.20763933 6.47656412 -14.41613103 6.95633498 -12.625 7.4375 C-11.62726563 7.70433594 -10.62953125 7.97117187 -9.6015625 8.24609375 C-7 9 -7 9 -5 10 C-4.67 8.68 -4.34 7.36 -4 6 C-3.34 6 -2.68 6 -2 6 C-1.855625 5.195625 -1.71125 4.39125 -1.5625 3.5625 C-1 1 -1 1 0 0 Z " fill="#D3CBE7" transform="translate(102,88)"/>
<path d="M0 0 C-1.32 0.33 -2.64 0.66 -4 1 C-4 1.66 -4 2.32 -4 3 C-0.535 2.505 -0.535 2.505 3 2 C3 3.65 3 5.3 3 7 C3.66 7 4.32 7 5 7 C4.67 8.32 4.34 9.64 4 11 C3.278125 10.54625 2.55625 10.0925 1.8125 9.625 C-0.74894081 8.14505642 -3.23277989 7.02782461 -6 6 C-6 5.34 -6 4.68 -6 4 C-6.99 4.495 -6.99 4.495 -8 5 C-10.33333333 5 -12.66666667 5 -15 5 C-17.68113802 5.26203094 -20.33116658 5.62542689 -23 6 C-23 5.01 -23 4.02 -23 3 C-15.066067 0.13946633 -8.4838372 -1.55825581 0 0 Z " fill="#CAC2E2" transform="translate(62,105)"/>
<path d="M0 0 C7.26035503 0.5094986 7.26035503 0.5094986 10.96875 2.96875 C16.17445417 6.08335758 22.01915051 5.92699741 27.9375 6.25 C29.09830078 6.32734375 30.25910156 6.4046875 31.45507812 6.484375 C34.30277154 6.67187745 37.15047524 6.84326817 40 7 C40 7.66 40 8.32 40 9 C37.03 9.66 34.06 10.32 31 11 C31 12.65 31 14.3 31 16 C32.36125 16.556875 32.36125 16.556875 33.75 17.125 C37.45112176 19.26026255 38.88653657 21.34208252 41 25 C37.41486894 23.37815499 34.41007677 21.20743761 31.25 18.875 C30.26515625 18.15054688 29.2803125 17.42609375 28.265625 16.6796875 C27.51796875 16.12539062 26.7703125 15.57109375 26 15 C26.1875 13.125 26.1875 13.125 27 11 C29.5625 9.75 29.5625 9.75 32 9 C31.01902344 8.99742188 30.03804687 8.99484375 29.02734375 8.9921875 C18.7425241 8.76762812 10.15467218 6.78683968 1 2 C0.67 1.34 0.34 0.68 0 0 Z " fill="#D2CCE0" transform="translate(27,55)"/>
<path d="M0 0 C2 2 2 2 2 5 C7.445 4.01 7.445 4.01 13 3 C12.67 6.3 12.34 9.6 12 13 C11.34 13 10.68 13 10 13 C10 11.35 10 9.7 10 8 C7.69 8.33 5.38 8.66 3 9 C3 8.34 3 7.68 3 7 C-0.47325181 5.8422494 -3.36067448 5.93133348 -7 6 C-6.67 5.34 -6.34 4.68 -6 4 C-4.68 4 -3.36 4 -2 4 C-4.31 3.01 -6.62 2.02 -9 1 C-5.66429909 -1.10025613 -3.74952434 -1.18406032 0 0 Z " fill="#DEDBE7" transform="translate(55,99)"/>
<path d="M0 0 C3.43595166 1.52708963 6.11912454 3.59927045 9 6 C8.01 4.68 7.02 3.36 6 2 C7.8125 2.1875 7.8125 2.1875 10 3 C11.625 5.5 11.625 5.5 13 8 C13.66 8.33 14.32 8.66 15 9 C15 9.66 15 10.32 15 11 C15.66 11.33 16.32 11.66 17 12 C17.625 14.5625 17.625 14.5625 18 17 C16.68 17 15.36 17 14 17 C14 16.01 14 15.02 14 14 C13.443125 13.773125 12.88625 13.54625 12.3125 13.3125 C9.34144815 11.62622733 7.35477875 9.469646 5 7 C4.071875 6.113125 3.14375 5.22625 2.1875 4.3125 C0 2 0 2 0 0 Z " fill="#E9E6F2" transform="translate(67,57)"/>
<path d="M0 0 C0.66 0.33 1.32 0.66 2 1 C2 11.89 2 22.78 2 34 C1.34 34 0.68 34 0 34 C-0.19849851 29.83378191 -0.38180993 25.66702543 -0.5625 21.5 C-0.61857422 20.32695313 -0.67464844 19.15390625 -0.73242188 17.9453125 C-0.99083088 11.81240536 -1.01245442 6.0597272 0 0 Z " fill="#FDFDFE" transform="translate(386,47)"/>
<path d="M0 0 C2.31 0 4.62 0 7 0 C8.125 7.75 8.125 7.75 7 10 C4.69 10 2.38 10 0 10 C0 6.7 0 3.4 0 0 Z " fill="#F1F2F2" transform="translate(413,107)"/>
<path d="M0 0 C-3.3 1.32 -6.6 2.64 -10 4 C-8.93354885 5.29633621 -8.93354885 5.29633621 -6.4375 5.0625 C-5.633125 5.041875 -4.82875 5.02125 -4 5 C-4 5.66 -4 6.32 -4 7 C-8.29 7.99 -12.58 8.98 -17 10 C-17 6 -17 6 -15.6796875 4.5859375 C-6.44418331 -1.61104583 -6.44418331 -1.61104583 0 0 Z " fill="#DCD8E5" transform="translate(41,34)"/>
<path d="M0 0 C1.98 0 3.96 0 6 0 C6 3.3 6 6.6 6 10 C4.02 10 2.04 10 0 10 C0 6.7 0 3.4 0 0 Z " fill="#F4F6F6" transform="translate(376,107)"/>
<path d="M0 0 C1.98 0 3.96 0 6 0 C6 3.3 6 6.6 6 10 C4.02 10 2.04 10 0 10 C0 6.7 0 3.4 0 0 Z " fill="#EDEEEE" transform="translate(232,107)"/>
<path d="M0 0 C1.98 0 3.96 0 6 0 C6 3.3 6 6.6 6 10 C4.02 10 2.04 10 0 10 C0 6.7 0 3.4 0 0 Z " fill="#EDEEEE" transform="translate(185,107)"/>
<path d="M0 0 C1.98 0 3.96 0 6 0 C6 3.3 6 6.6 6 10 C4.35 10 2.7 10 1 10 C0 9 0 9 -0.09765625 6.93359375 C-0.08605469 6.10988281 -0.07445312 5.28617187 -0.0625 4.4375 C-0.05347656 3.61121094 -0.04445313 2.78492187 -0.03515625 1.93359375 C-0.02355469 1.29550781 -0.01195312 0.65742187 0 0 Z " fill="#EDEDED" transform="translate(315,107)"/>
<path d="M0 0 C1.65 0 3.3 0 5 0 C6 1 6 1 6.09765625 3.06640625 C6.08605469 3.89011719 6.07445312 4.71382813 6.0625 5.5625 C6.05347656 6.38878906 6.04445313 7.21507813 6.03515625 8.06640625 C6.01775391 9.02353516 6.01775391 9.02353516 6 10 C4.02 10 2.04 10 0 10 C0 6.7 0 3.4 0 0 Z " fill="#EDEEEE" transform="translate(269,107)"/>
<path d="M0 0 C1.65 0 3.3 0 5 0 C5 3.3 5 6.6 5 10 C3.35 10 1.7 10 0 10 C-1 9 -1 9 -1.1328125 7.1875 C-1.13023437 6.465625 -1.12765625 5.74375 -1.125 5 C-1.12757813 4.278125 -1.13015625 3.55625 -1.1328125 2.8125 C-1 1 -1 1 0 0 Z " fill="#F1F2F2" transform="translate(464,107)"/>
<path d="M0 0 C1.2065625 0.0309375 1.2065625 0.0309375 2.4375 0.0625 C2.4375 3.0325 2.4375 6.0025 2.4375 9.0625 C0.78135343 9.44468767 -0.88707024 9.77645102 -2.5625 10.0625 C-3.5625 9.0625 -3.5625 9.0625 -3.6953125 7.25 C-3.69273437 6.528125 -3.69015625 5.80625 -3.6875 5.0625 C-3.69007813 4.340625 -3.69265625 3.61875 -3.6953125 2.875 C-3.48140927 -0.04414996 -2.93781989 0.07165414 0 0 Z " fill="#F7F8F7" transform="translate(308.5625,106.9375)"/>
<path d="M0 0 C1.66611905 -0.042721 3.33382885 -0.04063832 5 0 C6 1 6 1 6.09765625 2.84765625 C6.06510417 4.8984375 6.03255208 6.94921875 6 9 C4.34385343 9.38218767 2.67542976 9.71395102 1 10 C0 9 0 9 -0.09765625 6.93359375 C-0.08605469 6.10988281 -0.07445312 5.28617187 -0.0625 4.4375 C-0.05347656 3.61121094 -0.04445313 2.78492187 -0.03515625 1.93359375 C-0.02355469 1.29550781 -0.01195312 0.65742187 0 0 Z " fill="#EDEEEE" transform="translate(259,107)"/>
<path d="M0 0 C1.65 0 3.3 0 5 0 C5.95024979 3.69541586 5.95024979 6.30458414 5 10 C3.35 9.67 1.7 9.34 0 9 C0 6.03 0 3.06 0 0 Z " fill="#F4F5F4" transform="translate(286,107)"/>
<path d="M0 0 C1.2065625 0.0309375 1.2065625 0.0309375 2.4375 0.0625 C2.4375 3.0325 2.4375 6.0025 2.4375 9.0625 C1.1175 9.3925 -0.2025 9.7225 -1.5625 10.0625 C-3.5625 8.0625 -3.5625 8.0625 -3.75 4.5 C-3.50921403 0.08559059 -3.50921403 0.08559059 0 0 Z " fill="#E7E8E8" transform="translate(225.5625,106.9375)"/>
<path d="M0 0 C1.65 0 3.3 0 5 0 C5 2.97 5 5.94 5 9 C3.35 9.33 1.7 9.66 0 10 C-0.74926071 6.33694766 -1.2380014 3.57644848 0 0 Z " fill="#F1F2F2" transform="translate(343,107)"/>
<path d="M0 0 C1.65 0.33 3.3 0.66 5 1 C5 3.64 5 6.28 5 9 C3.35 9.33 1.7 9.66 0 10 C-0.95024979 6.30458414 -0.95024979 3.69541586 0 0 Z " fill="#EAECEB" transform="translate(159,107)"/>
<path d="M0 0 C1.32 0 2.64 0 4 0 C5.60725635 3.21451269 5.05748185 6.43612536 5 10 C3.02 10 1.04 10 -1 10 C-0.67 6.7 -0.34 3.4 0 0 Z " fill="#EEEFEF" transform="translate(196,107)"/>
<path d="M0 0 C1.32 0 2.64 0 4 0 C4.33 3.3 4.66 6.6 5 10 C3.02 10 1.04 10 -1 10 C-2.31223496 6.06329512 -1.24296256 3.87511856 0 0 Z " fill="#EEEFEF" transform="translate(426,107)"/>
<path d="M0 0 C1.65 0 3.3 0 5 0 C6.23076923 5.41538462 6.23076923 5.41538462 5.0625 8.375 C4.711875 8.91125 4.36125 9.4475 4 10 C2.68 10 1.36 10 0 10 C0 6.7 0 3.4 0 0 Z " fill="#ECECEC" transform="translate(139,107)"/>
<path d="M0 0 C1.32 0 2.64 0 4 0 C5.60725635 3.21451269 5.05748185 6.43612536 5 10 C3.02 10 1.04 10 -1 10 C-0.67 6.7 -0.34 3.4 0 0 Z " fill="#EFEFEF" transform="translate(387,107)"/>
<path d="M0 0 C1.65 0 3.3 0 5 0 C5 3.3 5 6.6 5 10 C3.35 10 1.7 10 0 10 C0 6.7 0 3.4 0 0 Z " fill="#E4E5E5" transform="translate(454,107)"/>
<path d="M0 0 C1.65 0 3.3 0 5 0 C5 3.3 5 6.6 5 10 C3.35 10 1.7 10 0 10 C0 6.7 0 3.4 0 0 Z " fill="#E6E7E7" transform="translate(333,107)"/>
<path d="M0 0 C1.65 0 3.3 0 5 0 C5 3.3 5 6.6 5 10 C3.35 10 1.7 10 0 10 C0 6.7 0 3.4 0 0 Z " fill="#E6E7E6" transform="translate(149,107)"/>
<path d="M0 0 C3.98556309 3.71655528 6.92020902 7.58197177 9.8125 12.1875 C10.21919922 12.81591797 10.62589844 13.44433594 11.04492188 14.09179688 C14 18.73549107 14 18.73549107 14 21 C13.34 21 12.68 21 12 21 C10.44921875 18.83984375 10.44921875 18.83984375 8.6875 15.9375 C6.58679783 12.52276028 4.47348598 9.20316708 2.0625 6 C0 3 0 3 0 0 Z " fill="#EBE9F1" transform="translate(83,55)"/>
<path d="M0 0 C3.33511388 2.9901021 5.21521119 5.89498574 7 10 C7 10.66 7 11.32 7 12 C4.625 11.6875 4.625 11.6875 2 11 C-0.30694043 7.53958935 -0.62056512 5.09789669 -1 1 C-0.67 0.67 -0.34 0.34 0 0 Z " fill="#CBC2E6" transform="translate(102,108)"/>
<path d="M0 0 C1.98 0 3.96 0 6 0 C5.67 2.97 5.34 5.94 5 9 C3.68 9 2.36 9 1 9 C0.67 6.03 0.34 3.06 0 0 Z " fill="#F2F3F3" transform="translate(444,107)"/>
<path d="M0 0 C1.98 0 3.96 0 6 0 C5.67 2.97 5.34 5.94 5 9 C3.68 9 2.36 9 1 9 C0.67 6.03 0.34 3.06 0 0 Z " fill="#F3F4F4" transform="translate(205,107)"/>
<path d="M0 0 C2 2 2 2 2 5 C2.66 5.33 3.32 5.66 4 6 C0.37 6 -3.26 6 -7 6 C-6.67 5.34 -6.34 4.68 -6 4 C-4.68 4 -3.36 4 -2 4 C-4.31 3.01 -6.62 2.02 -9 1 C-5.66429909 -1.10025613 -3.74952434 -1.18406032 0 0 Z " fill="#D7D6DE" transform="translate(55,99)"/>
<path d="M0 0 C0.66 1.32 1.32 2.64 2 4 C1.360625 4.103125 0.72125 4.20625 0.0625 4.3125 C-0.618125 4.539375 -1.29875 4.76625 -2 5 C-2.33 5.99 -2.66 6.98 -3 8 C-5.0625 8.6875 -5.0625 8.6875 -7 9 C-7.33 7.68 -7.66 6.36 -8 5 C-5.31158141 2.74754119 -3.35358125 1.11786042 0 0 Z " fill="#E6E4EE" transform="translate(60,118)"/>
<path d="M0 0 C3.50778211 4.20933853 7 9.4255442 7 15 C5.02 15 3.04 15 1 15 C0.67 13.68 0.34 12.36 0 11 C1.32 11.33 2.64 11.66 4 12 C3.566875 11.20335938 3.566875 11.20335938 3.125 10.390625 C2.75375 9.68421875 2.3825 8.9778125 2 8.25 C1.62875 7.55390625 1.2575 6.8578125 0.875 6.140625 C0 4 0 4 0 0 Z " fill="#E8E7ED" transform="translate(105,108)"/>
<path d="M0 0 C1.65 0 3.3 0 5 0 C5 1.98 5 3.96 5 6 C4.34 6 3.68 6 3 6 C3 7.32 3 8.64 3 10 C2.01 10 1.02 10 0 10 C0 6.7 0 3.4 0 0 Z " fill="#E7E8E8" transform="translate(250,107)"/>
<path d="M0 0 C0 0.66 0 1.32 0 2 C1.65 2 3.3 2 5 2 C5.33 2.66 5.66 3.32 6 4 C5.01 3.979375 4.02 3.95875 3 3.9375 C-1.06568074 3.92918572 -4.97662176 4.43531533 -9 5 C-9 4.01 -9 3.02 -9 2 C-2.25 0 -2.25 0 0 0 Z " fill="#DBD8E4" transform="translate(48,106)"/>
<path d="M0 0 C1.98 0 3.96 0 6 0 C5.67 3.3 5.34 6.6 5 10 C4.01 10 3.02 10 2 10 C2 7.69 2 5.38 2 3 C1.34 3 0.68 3 0 3 C0 2.01 0 1.02 0 0 Z " fill="#EBEBEB" transform="translate(396,107)"/>
<path d="M0 0 C1.98 0 3.96 0 6 0 C5.67 3.3 5.34 6.6 5 10 C4.01 10 3.02 10 2 10 C1.855625 8.906875 1.71125 7.81375 1.5625 6.6875 C1.11711896 3.06877013 1.11711896 3.06877013 0 0 Z " fill="#E9E9E9" transform="translate(366,107)"/>
<path d="M0 0 C0.99 0 1.98 0 3 0 C3 3.3 3 6.6 3 10 C1.68 9.67 0.36 9.34 -1 9 C-1.09765625 2.84765625 -1.09765625 2.84765625 -1 1 C-0.67 0.67 -0.34 0.34 0 0 Z " fill="#F6F7F6" transform="translate(178,107)"/>
<path d="M0 0 C1.8125 0.1875 1.8125 0.1875 4 1 C5.625 3.5 5.625 3.5 7 6 C7.66 6.33 8.32 6.66 9 7 C9 7.66 9 8.32 9 9 C9.66 9.33 10.32 9.66 11 10 C11.625 12.5625 11.625 12.5625 12 15 C10.68 15 9.36 15 8 15 C8.0825 14.27296875 8.165 13.5459375 8.25 12.796875 C7.91973867 9.10207632 6.54821482 7.8866945 4 5.25 C0 1.05555556 0 1.05555556 0 0 Z " fill="#DBD6E8" transform="translate(73,59)"/>
<path d="M0 0 C6.78505979 0.17276773 11.69430883 1.65528861 17 6 C17.33 6.66 17.66 7.32 18 8 C15.08835566 7.38022648 12.78548999 6.43921238 10.1875 5 C6.39465813 3.03597682 3.23962376 2.35330198 -1 2 C-0.67 1.34 -0.34 0.68 0 0 Z " fill="#E5E2ED" transform="translate(52,33)"/>
<path d="M0 0 C1.32 0.33 2.64 0.66 4 1 C4 3.64 4 6.28 4 9 C2.68 9 1.36 9 0 9 C0 6.03 0 3.06 0 0 Z " fill="#F5F6F5" transform="translate(325,107)"/>
<path d="M0 0 C1.65 0 3.3 0 5 0 C4.67 3.3 4.34 6.6 4 10 C3.01 10 2.02 10 1 10 C0.67 6.7 0.34 3.4 0 0 Z " fill="#E3E4E3" transform="translate(435,107)"/>
<path d="M0 0 C1.65 0 3.3 0 5 0 C4.67 3.3 4.34 6.6 4 10 C3.01 10 2.02 10 1 10 C0.67 6.7 0.34 3.4 0 0 Z " fill="#E1E2E2" transform="translate(296,107)"/>
<path d="M0 0 C1.65 0 3.3 0 5 0 C4.67 3.3 4.34 6.6 4 10 C3.01 10 2.02 10 1 10 C0.67 6.7 0.34 3.4 0 0 Z " fill="#E1E3E2" transform="translate(168,107)"/>
<path d="M0 0 C6.15222436 0.43173504 9.81917949 1.65405342 15 5 C15 5.66 15 6.32 15 7 C4.11971831 4.02112676 4.11971831 4.02112676 0 1 C0 0.67 0 0.34 0 0 Z " fill="#DCD7ED" transform="translate(27,55)"/>
<path d="M0 0 C0.99 0 1.98 0 3 0 C3 3.3 3 6.6 3 10 C2.01 10 1.02 10 0 10 C0 6.7 0 3.4 0 0 Z " fill="#DFE0E0" transform="translate(215,107)"/>
<path d="M0 0 C1.65 0 3.3 0 5 0 C5 2.97 5 5.94 5 9 C3.68 9 2.36 9 1 9 C1 8.01 1 7.02 1 6 C1.66 6 2.32 6 3 6 C3 4.68 3 3.36 3 2 C2.01 1.67 1.02 1.34 0 1 C0 0.67 0 0.34 0 0 Z " fill="#E3E5E4" transform="translate(377,107)"/>
<path d="M0 0 C1.65 0 3.3 0 5 0 C5 2.64 5 5.28 5 8 C3.68 7.67 2.36 7.34 1 7 C0.67 4.69 0.34 2.38 0 0 Z " fill="#E4E5E4" transform="translate(306,107)"/>
<path d="M0 0 C0.33 0.99 0.66 1.98 1 3 C-0.45922693 2.88590407 -1.91740598 2.75834456 -3.375 2.625 C-4.59316406 2.52058594 -4.59316406 2.52058594 -5.8359375 2.4140625 C-8 2 -8 2 -10 0 C-6.30581799 -1.231394 -3.7943739 -0.64432764 0 0 Z " fill="#D1CFDA" transform="translate(105,120)"/>
<path d="M0 0 C1.32 0.33 2.64 0.66 4 1 C4 2.65 4 4.3 4 6 C2.68 6.33 1.36 6.66 0 7 C0 4.69 0 2.38 0 0 Z " fill="#FAFBFA" transform="translate(316,108)"/>
<path d="M0 0 C0 0.66 0 1.32 0 2 C-0.56589844 2.17015625 -1.13179687 2.3403125 -1.71484375 2.515625 C-2.44832031 2.75796875 -3.18179688 3.0003125 -3.9375 3.25 C-5.03384766 3.59804687 -5.03384766 3.59804687 -6.15234375 3.953125 C-8.20570556 4.8507553 -8.20570556 4.8507553 -8.75390625 7.109375 C-8.83511719 7.73328125 -8.91632812 8.3571875 -9 9 C-9.66 8.34 -10.32 7.68 -11 7 C-10.87109375 4.984375 -10.87109375 4.984375 -10 3 C-8.22265625 1.953125 -8.22265625 1.953125 -6.0625 1.25 C-5.35222656 1.00765625 -4.64195313 0.7653125 -3.91015625 0.515625 C-2 0 -2 0 0 0 Z " fill="#E0DEE6" transform="translate(64,63)"/>
<path d="M0 0 C2.31 0 4.62 0 7 0 C7.33 0.99 7.66 1.98 8 3 C5.36 3.33 2.72 3.66 0 4 C0 2.68 0 1.36 0 0 Z " fill="#DAD7E5" transform="translate(71,115)"/>
<path d="M0 0 C0.33 0.66 0.66 1.32 1 2 C1.66 2 2.32 2 3 2 C3.33 2.99 3.66 3.98 4 5 C2.35 5.33 0.7 5.66 -1 6 C-1.33 4.35 -1.66 2.7 -2 1 C-1.34 0.67 -0.68 0.34 0 0 Z " fill="#F6F7F7" transform="translate(160,111)"/>
<path d="M0 0 C4.3694206 0.25702474 6.51822991 0.60023333 9.9375 3.4375 C12 6 12 6 12 8 C9.14940657 6.61964507 6.44119096 5.10703513 3.75 3.4375 C3.04359375 3.00308594 2.3371875 2.56867187 1.609375 2.12109375 C1.07828125 1.75113281 0.5471875 1.38117187 0 1 C0 0.67 0 0.34 0 0 Z " fill="#D9D3E6" transform="translate(54,43)"/>
<path d="M0 0 C4.2742558 1.5830577 6.26531794 4.50568404 9 8 C6 8 6 8 4.39453125 6.7578125 C3.87246094 6.21898437 3.35039063 5.68015625 2.8125 5.125 C2.28269531 4.59132813 1.75289063 4.05765625 1.20703125 3.5078125 C0 2 0 2 0 0 Z " fill="#EEEDF5" transform="translate(70,41)"/>
<path d="M0 0 C1.32 0 2.64 0 4 0 C3.67 1.65 3.34 3.3 3 5 C1.68 5 0.36 5 -1 5 C-1.33 4.01 -1.66 3.02 -2 2 C-1.34 2 -0.68 2 0 2 C0 1.34 0 0.68 0 0 Z " fill="#E7E8E8" transform="translate(344,112)"/>
<path d="M0 0 C1.32 1.32 2.64 2.64 4 4 C3.34 5.32 2.68 6.64 2 8 C1.34 7.67 0.68 7.34 0 7 C-0.6875 4 -0.6875 4 -1 1 C-0.67 0.67 -0.34 0.34 0 0 Z " fill="#C2B5E9" transform="translate(102,108)"/>
<path d="M0 0 C0.66 0 1.32 0 2 0 C6 6.75 6 6.75 6 9 C5.34 9 4.68 9 4 9 C3.3309224 7.68872739 2.66480194 6.3759455 2 5.0625 C1.62875 4.33160156 1.2575 3.60070312 0.875 2.84765625 C0 1 0 1 0 0 Z " fill="#E9E7ED" transform="translate(84,75)"/>
<path d="M0 0 C0.598125 0.309375 1.19625 0.61875 1.8125 0.9375 C4.08956772 2.10209704 4.08956772 2.10209704 7 3 C7.33 4.65 7.66 6.3 8 8 C6.85073734 7.04578192 5.70569459 6.08647955 4.5625 5.125 C3.92441406 4.59132813 3.28632812 4.05765625 2.62890625 3.5078125 C1 2 1 2 0 0 Z " fill="#D6D0E4" transform="translate(76,86)"/>
<path d="M0 0 C2.91227269 3.28804981 4.49701212 5.59885603 5 10 C4.34 10 3.68 10 3 10 C0.96564469 6.27034861 0 4.33094958 0 0 Z " fill="#E4E2E9" transform="translate(97,76)"/>
<path d="M0 0 C1.65 0 3.3 0 5 0 C5.33 1.32 5.66 2.64 6 4 C3.03 3.505 3.03 3.505 0 3 C0 2.01 0 1.02 0 0 Z " fill="#C0B7DD" transform="translate(48,105)"/>
<path d="M0 0 C0.66 0.33 1.32 0.66 2 1 C2 2.32 2 3.64 2 5 C0.68 5.33 -0.64 5.66 -2 6 C-2 2 -2 2 0 0 Z " fill="#E8E6EA" transform="translate(26,38)"/>
<path d="M0 0 C0.99 0 1.98 0 3 0 C3 1.32 3 2.64 3 4 C2.01 4 1.02 4 0 4 C0 2.68 0 1.36 0 0 Z " fill="#EFEFEF" transform="translate(352,114)"/>
<path d="M0 0 C0.66 0 1.32 0 2 0 C2 0.99 2 1.98 2 3 C1.34 3 0.68 3 0 3 C0 2.01 0 1.02 0 0 Z " fill="#EDEDED" transform="translate(474,114)"/>
<path d="" fill="#FEFEFE" transform="translate(0,0)"/>
</svg>
